PathFileType	4	(X/Y/Z)	C:\Users\Basilio\Documents\Thesis Gigler\squatting_fais\c3dfiles\054\SJ_pre1\markers_experimental.trc
DataRate	CameraRate	NumFrames	NumMarkers	Units	OrigDataRate	OrigDataStartFrame	OrigNumFrames
200.000000	200.000000	4	61	mm	200.000000	492	1968
Frame#	Time	FHD			LBHD			RBHD			C7			T10			CLAV			LSHO			LUUPA			LMUPA			LDUPA			LLEP			LMEP			LRAD			LUL			LRFIN			RSHO			RUPA1			RMUPA			RDUPA			RLEP			RMEP			RRAD			RUL			RUFIN			LASI			RASI			USACR			LSACR			RSACR			LTHI1			LTHI2			LTHI3			LTHI4			LLFC			LMFC			LTIB1			LTIB2			LTIB3			LTIB4			LLMAL			LMMAL			LHEE			LMT1			LMT2			LMT5			RTHI			RTHI2			RTHI3			RTHI4			RLFC			RMFC			RTIB1			RTIB2			RTIB3			RTIB4			RLMAL			RMMAL			RHEE			RMT1			RMT2			RMT5			
		X1	Y1	Z1	X2	Y2	Z2	X3	Y3	Z3	X4	Y4	Z4	X5	Y5	Z5	X6	Y6	Z6	X7	Y7	Z7	X8	Y8	Z8	X9	Y9	Z9	X10	Y10	Z10	X11	Y11	Z11	X12	Y12	Z12	X13	Y13	Z13	X14	Y14	Z14	X15	Y15	Z15	X16	Y16	Z16	X17	Y17	Z17	X18	Y18	Z18	X19	Y19	Z19	X20	Y20	Z20	X21	Y21	Z21	X22	Y22	Z22	X23	Y23	Z23	X24	Y24	Z24	X25	Y25	Z25	X26	Y26	Z26	X27	Y27	Z27	X28	Y28	Z28	X29	Y29	Z29	X30	Y30	Z30	X31	Y31	Z31	X32	Y32	Z32	X33	Y33	Z33	X34	Y34	Z34	X35	Y35	Z35	X36	Y36	Z36	X37	Y37	Z37	X38	Y38	Z38	X39	Y39	Z39	X40	Y40	Z40	X41	Y41	Z41	X42	Y42	Z42	X43	Y43	Z43	X44	Y44	Z44	X45	Y45	Z45	X46	Y46	Z46	X47	Y47	Z47	X48	Y48	Z48	X49	Y49	Z49	X50	Y50	Z50	X51	Y51	Z51	X52	Y52	Z52	X53	Y53	Z53	X54	Y54	Z54	X55	Y55	Z55	X56	Y56	Z56	X57	Y57	Z57	X58	Y58	Z58	X59	Y59	Z59	X60	Y60	Z60	X61	Y61	Z61	

493	2.46	-189.9500579833985	1758.400634765625	-904.552673339844	-339.3987731933594	1678.02587890625	-976.3027343750002	-356.4790039062501	1672.493041992188	-837.2730102539065	-381.6537780761719	1537.75927734375	-892.8305664062502	-445.5633850097657	1201.51416015625	-898.9375000000002	-247.2186584472657	1459.661865234375	-904.460144042969	-309.1957092285157	1527.026977539063	-1060.651245117188	-431.1945190429689	1409.830810546875	-1225.874877929688	-397.0565490722657	1371.2705078125	-1236.805419921875	-446.7233276367189	1356.555053710938	-1268.387573242188	-449.897186279297	1291.919799804688	-1288.779052734375	-519.9207763671876	1280.826538085938	-1234.50634765625	-414.1851806640626	1085.114624023438	-1128.620849609375	-384.263153076172	1041.968383789063	-1185.834838867188	-351.3919982910157	1088.98779296875	-1103.201171875	-279.3947753906251	1521.155151367188	-738.1046142578126	-381.5408630371094	1397.192016601563	-558.3510131835939	-360.7738342285157	1353.0546875	-554.7198486328126	-410.6796264648439	1344.8896484375	-520.5729370117189	-424.0053100585939	1296.132446289063	-504.0443115234376	-493.7845153808595	1296.157836914063	-556.7963867187501	-418.2273254394532	1088.205322265625	-688.2505493164064	-378.1136169433594	1053.344482421875	-628.0512695312501	-352.2443542480469	1098.33203125	-712.1848754882814	-268.0834960937501	1013.021423339844	-1031.693603515625	-262.7851562500001	1012.173522949219	-777.7158813476565	-450.310760498047	1108.753051757813	-898.722839355469	-457.4522094726564	1077.611450195313	-927.1599731445315	-455.2188720703126	1075.789672851563	-870.6152954101565	-364.7342834472657	798.0691528320315	-1143.548950195313	-328.3776550292969	721.1181030273439	-1153.946899414063	-281.9786987304688	728.2836914062501	-1149.81396484375	-353.0961914062501	665.6962890625001	-1143.846801757813	-340.3144531250001	509.8689270019532	-1142.755859375	-293.7693786621094	487.6758728027345	-1019.134826660156	-305.6240844726563	339.2129516601563	-1122.51513671875	-370.2221374511719	305.6360778808594	-1176.28173828125	-325.6040649414063	296.2434387207032	-1158.709228515625	-334.3600769042969	215.9293670654297	-1132.248046875	-410.0661010742189	88.79276275634767	-1185.72509765625	-369.7196044921876	100.6243972778321	-1095.09765625	-471.986053466797	51.28098297119142	-1125.185546875	-249.8819427490235	54.60737991333009	-1131.709106445313	-247.8778839111329	60.14638519287111	-1181.208740234375	-302.5841369628907	35.84922027587891	-1228.839721679688	-353.0500488281251	725.1727905273439	-681.0484619140626	-313.5069274902344	672.4959106445314	-678.5203247070314	-281.0859680175782	674.1538696289064	-683.4320678710939	-339.2121887207032	592.2326049804689	-689.5299072265626	-345.8253173828126	500.0295715332032	-684.3184204101564	-292.7294311523438	492.8816833496095	-809.253356933594	-306.2558593750001	386.6958312988282	-677.2932739257814	-387.8056030273439	326.4236755371094	-642.2167358398439	-344.0327758789063	313.1747436523438	-649.6748046875001	-334.4501953125001	259.4338073730469	-669.2693481445314	-417.9519042968751	93.25714111328126	-635.3811035156251	-372.1739501953126	99.43079376220706	-721.9794921875001	-473.0504455566407	47.88325119018555	-696.2946777343751	-245.0569000244141	52.47047424316408	-676.2799682617189	-253.5494537353516	57.28354644775392	-629.5723876953126	-306.6057128906251	36.11297225952149	-586.1677856445314	
494	2.465	-190.661117553711	1758.43994140625	-904.2654418945315	-340.1131896972657	1677.911743164063	-975.956970214844	-357.1040344238282	1672.4228515625	-836.8920898437502	-382.4282226562501	1537.55517578125	-892.438415527344	-446.0511169433595	1201.294921875	-898.6250000000002	-247.8708496093751	1459.539672851563	-903.9660644531252	-309.8884582519532	1527.035034179688	-1060.238159179688	-431.7633056640626	1409.93212890625	-1225.410766601563	-397.5345764160157	1371.270629882813	-1236.456420898438	-447.5081176757814	1356.416381835938	-1267.875244140625	-450.5274353027345	1291.959106445313	-1288.357177734375	-520.4264526367189	1280.836059570313	-1234.222900390625	-414.5952758789064	1085.211181640625	-1128.339721679688	-384.3780822753907	1042.1083984375	-1185.508544921875	-351.5738830566407	1089.067993164063	-1102.99072265625	-279.9653930664063	1521.315185546875	-737.2778320312501	-382.5576477050782	1397.242553710938	-557.9571533203126	-361.3948059082032	1352.92333984375	-553.5375366210939	-411.4062805175782	1344.9140625	-520.3368530273439	-424.8509521484376	1296.18896484375	-503.7979736328126	-494.7127075195314	1296.216064453125	-556.4761352539064	-418.9437561035157	1088.202514648438	-687.9727783203126	-378.7551879882813	1053.390502929688	-627.8111572265626	-352.7691650390626	1098.16552734375	-711.7227172851564	-268.4761047363282	1013.085266113281	-1031.327758789063	-263.9948730468751	1011.834228515625	-777.2378540039065	-450.6793518066407	1108.710083007813	-898.5920410156252	-457.840545654297	1077.567504882813	-927.049499511719	-455.9412231445314	1075.72802734375	-870.4246215820315	-366.2137451171876	798.1585083007815	-1143.168823242188	-329.7444152832032	721.1989746093751	-1153.693725585938	-283.4706420898438	728.5043334960939	-1149.900024414063	-354.2659912109376	665.7959594726564	-1143.469360351563	-342.1106872558594	510.0972595214845	-1142.352172851563	-294.9496154785157	487.6900329589845	-1018.805114746094	-306.3719787597657	339.1960449218751	-1122.192260742188	-370.8648376464844	305.5392761230469	-1175.91943359375	-326.1521606445313	296.3120727539063	-1158.526000976563	-334.7536010742188	215.8931732177735	-1131.918334960938	-410.1323242187501	88.7783889770508	-1185.605102539063	-369.8675842285157	100.6090698242188	-1094.995239257813	-472.0679931640626	51.13198852539064	-1125.2001953125	-250.0859527587891	54.62482070922853	-1131.583251953125	-248.0198059082032	60.33230590820314	-1181.070434570313	-302.6088562011719	36.07276916503907	-1228.677978515625	-354.0062255859376	725.0540161132814	-681.1034545898439	-314.6774902343751	672.3425903320314	-678.4226074218751	-282.3959045410157	674.2141113281251	-683.0184326171876	-340.5812072753907	592.1992187500001	-689.3209228515626	-347.1268310546876	499.9399414062501	-684.2634887695314	-293.5184936523438	492.823455810547	-809.0252075195315	-307.1769104003907	386.6488647460939	-677.2694091796876	-388.7739562988282	326.1423034667969	-642.3441772460939	-344.8470153808594	313.0995788574219	-649.7562255859376	-335.5939941406251	259.3579101562501	-668.9490356445314	-418.1023864746095	93.05188751220705	-635.2566528320314	-372.3409423828126	99.29376983642581	-722.0375976562501	-473.1841125488282	47.67557907104493	-696.2194824218751	-245.119125366211	52.4920997619629	-676.3242797851564	-253.6464996337891	57.38362121582033	-629.6325683593751	-306.6742553710938	36.11242675781251	-586.1389770507814	
495	2.47	-191.1977996826172	1758.621459960938	-903.9693603515627	-340.8718872070313	1677.865844726563	-975.6033325195315	-357.8218688964844	1672.313842773438	-836.5288696289065	-383.1452331542969	1537.43115234375	-892.0574951171877	-446.4497985839845	1201.178833007813	-898.4466552734377	-248.8246002197266	1459.541870117188	-903.3411865234377	-310.5155639648438	1526.996704101563	-1059.828735351563	-432.3782653808595	1409.951782226563	-1224.9150390625	-398.2757568359376	1371.466552734375	-1236.018432617188	-448.3041992187501	1356.49267578125	-1267.383422851563	-451.2090148925782	1292.012451171875	-1287.886352539063	-520.8645019531251	1280.832397460938	-1233.876708984375	-414.9056396484376	1085.283813476563	-1128.1484375	-384.5976867675782	1042.242919921875	-1185.166137695313	-351.8968811035157	1089.274780273438	-1102.7734375	-281.0608520507813	1521.330078125	-736.7544555664064	-383.6791992187501	1397.328247070313	-557.4712524414064	-362.2735290527344	1353.113403320313	-553.8487548828126	-412.4942626953126	1345.029541015625	-519.8668212890626	-425.8287963867189	1296.283813476563	-503.4460449218751	-495.7093811035157	1296.288818359375	-556.2303466796876	-419.5917968750001	1088.2041015625	-687.6848144531251	-379.8570861816407	1053.408203125	-627.3355102539064	-353.8287658691407	1098.047973632813	-711.5133056640626	-268.8778686523438	1013.124877929688	-1030.932861328125	-264.5999145507813	1011.796203613281	-776.9895629882815	-451.1916503906251	1108.72998046875	-898.4278564453127	-458.4828491210939	1077.709106445313	-926.8823852539065	-456.5944824218751	1075.763916015625	-870.3023681640627	-367.4655456542969	798.2733154296877	-1142.88671875	-331.2156066894532	721.2230834960939	-1153.475341796875	-284.7036437988282	728.4279785156251	-1149.87646484375	-356.0762329101563	666.0420532226564	-1142.983032226563	-342.9458923339844	510.0199584960939	-1142.154052734375	-295.7053222656251	487.9319763183595	-1018.661865234375	-306.9987792968751	339.2841796875001	-1121.958740234375	-371.8143310546876	305.6149597167969	-1175.560791015625	-326.5204467773438	296.5699462890626	-1158.372924804688	-334.9358825683594	216.1034851074219	-1131.774047851563	-410.3395080566407	88.74404144287111	-1185.436645507813	-370.1390991210938	100.5899810791016	-1094.907470703125	-472.1043090820314	50.98430633544923	-1125.169311523438	-250.1999969482422	54.62049484252931	-1131.51220703125	-248.4198760986329	60.63765335083009	-1180.899658203125	-302.6964111328126	36.32892227172852	-1228.577758789063	-355.8961181640626	725.1873168945314	-681.1340942382814	-316.2461547851563	672.5294189453126	-678.2957763671876	-283.8123779296876	674.2658691406251	-682.9911499023439	-341.8187255859376	592.2506713867189	-689.3840942382814	-348.4754943847657	499.9256591796876	-684.2557373046876	-294.4168395996094	492.8019409179689	-808.6552734375002	-308.1747741699219	386.7226867675782	-676.9956054687501	-389.6220703125001	326.0069885253907	-642.3206787109376	-345.5818786621094	313.0799865722657	-649.7015991210939	-336.0031433105469	259.2662963867188	-668.9881591796876	-418.1329650878907	92.88186645507814	-635.1298828125001	-372.4457702636719	99.20123291015628	-721.9072875976564	-473.2662048339845	47.48107147216798	-696.1163330078126	-245.3360900878907	52.68625640869142	-676.4289550781251	-253.3834686279297	57.31305313110353	-629.5623168945314	-306.7081298828126	36.1389503479004	-586.1323242187501	
496	2.475	-192.0084533691407	1758.715576171875	-903.5848388671877	-341.4871826171876	1677.890991210938	-975.2461547851565	-358.4162902832032	1672.4033203125	-836.186462402344	-383.8483276367188	1537.46728515625	-891.6340332031252	-446.7121887207032	1201.118286132813	-898.290466308594	-249.2028198242188	1459.738403320313	-902.7901611328127	-311.0603027343751	1526.958862304688	-1059.438598632813	-433.0993957519532	1410.016723632813	-1224.442504882813	-398.9223632812501	1371.53271484375	-1235.688354492188	-449.054412841797	1356.717163085938	-1267.030517578125	-451.7345275878907	1292.162475585938	-1287.576293945313	-521.4599609375001	1280.865478515625	-1233.57421875	-415.1667480468751	1085.366943359375	-1127.91650390625	-385.1472473144532	1042.252685546875	-1185.001098632813	-352.2539672851563	1089.41455078125	-1102.54638671875	-281.8238220214844	1521.52099609375	-736.3037109375001	-384.3975524902345	1397.468383789063	-557.2185058593751	-363.8704833984376	1353.235473632813	-553.0529174804689	-413.6599426269532	1345.062866210938	-519.5180664062501	-426.9083862304689	1296.238891601563	-503.2041015625001	-496.6436157226564	1296.361206054688	-555.9017333984376	-420.3938293457032	1088.262939453125	-687.3847656250001	-380.6949157714844	1053.4931640625	-626.9992675781251	-354.5384521484376	1098.130737304688	-711.2695312500001	-269.1998901367188	1013.258728027344	-1030.621215820313	-265.3574523925782	1011.459533691406	-776.6164550781252	-451.677703857422	1108.874755859375	-898.288513183594	-459.0825195312501	1077.96533203125	-926.7615966796877	-456.9968261718751	1075.854858398438	-870.2282714843752	-368.9166870117188	798.4353637695315	-1142.47216796875	-332.7656860351563	721.3853759765626	-1153.200073242188	-286.2783813476563	728.5873413085939	-1149.889404296875	-357.8021240234376	666.3214721679689	-1142.536499023438	-344.1652221679688	509.955047607422	-1141.74658203125	-296.6733398437501	487.922821044922	-1018.524291992188	-307.9597473144532	339.7601013183594	-1121.551635742188	-372.5581054687501	305.5409240722657	-1175.157348632813	-327.7384643554688	296.5174560546876	-1158.046875	-335.4878540039063	216.3524627685547	-1131.451171875	-410.5123291015626	88.7302703857422	-1185.286865234375	-370.2786254882813	100.5783996582032	-1094.826171875	-472.1819763183595	50.88557052612306	-1125.174194335938	-250.2649536132813	54.66835784912111	-1131.412841796875	-248.6565551757813	61.11214447021486	-1180.776611328125	-302.7958374023438	36.54257202148438	-1228.491455078125	-356.8787841796876	725.2885131835939	-681.1610107421876	-317.7854003906251	672.7313842773439	-677.8430175781251	-285.2355651855469	674.5107421875001	-682.2952270507814	-343.1090393066407	592.4687500000001	-689.1478271484376	-349.7159423828126	500.0234985351564	-684.2117309570314	-295.3911132812501	493.0355224609376	-808.2238769531252	-309.1881713867188	386.9507141113282	-676.6436157226564	-390.6087646484376	326.0792541503907	-642.3286743164064	-346.7036132812501	313.1352844238282	-649.6074829101564	-336.5729980468751	259.4370422363282	-668.9445800781251	-418.1885070800782	92.81682586669923	-635.0553588867189	-372.4303894042969	99.21231079101565	-721.6136474609376	-473.3108520507814	47.30690383911134	-696.0515747070314	-245.3820190429688	52.74954223632814	-676.4840698242189	-253.5096740722657	57.42196655273439	-629.6171264648439	-306.7472839355469	36.19519424438477	-586.1439208984376	
